<?xml version="1.0" encoding="UTF-8" standalone="no"?>
<svg
   xmlns:dc="http://purl.org/dc/elements/1.1/"
   xmlns:cc="http://creativecommons.org/ns#"
   xmlns:rdf="http://www.w3.org/1999/02/22-rdf-syntax-ns#"
   xmlns:svg="http://www.w3.org/2000/svg"
   xmlns="http://www.w3.org/2000/svg"
   xmlns:sodipodi="http://sodipodi.sourceforge.net/DTD/sodipodi-0.dtd"
   xmlns:inkscape="http://www.inkscape.org/namespaces/inkscape"
   width="17px"
   height="17px"
   version="1.1"
   id="svg3110"
   inkscape:version="0.48.4 r9939"
   sodipodi:docname="UserTask.svg">
  <metadata
     id="metadata3124">
    <rdf:RDF>
      <cc:Work
         rdf:about="">
        <dc:format>image/svg+xml</dc:format>
        <dc:type
           rdf:resource="http://purl.org/dc/dcmitype/StillImage" />
      </cc:Work>
    </rdf:RDF>
  </metadata>
  <sodipodi:namedview
     pagecolor="#ffffff"
     bordercolor="#666666"
     borderopacity="1"
     objecttolerance="10"
     gridtolerance="10"
     guidetolerance="10"
     inkscape:pageopacity="0"
     inkscape:pageshadow="2"
     inkscape:window-width="1920"
     inkscape:window-height="1018"
     id="namedview3122"
     showgrid="true"
     inkscape:zoom="27.764706"
     inkscape:cx="14.534113"
     inkscape:cy="5.179427"
     inkscape:window-x="1912"
     inkscape:window-y="525"
     inkscape:window-maximized="1"
     inkscape:current-layer="svg3110">
    <inkscape:grid
       type="xygrid"
       id="grid3128"
       empspacing="5"
       visible="true"
       enabled="true"
       snapvisiblegridlinesonly="true" />
  </sodipodi:namedview>
  <defs
     id="defs3112" />
  <g
     transform="matrix(0.87514124,0,0,0.87514124,0.56041243,0.74706886)"
     id="g3114">
    <path
       d="m -0.17,14.64 0,-4.27 C 0.65,8.93 1.91,7.8 3.41,7.17 3.84,7.03 4.3,6.98 4.75,7.01 4.74,8.33 5.7,9.45 6.98,9.6 7.68,9.65 8.36,9.39 8.87,8.9 9.38,8.41 9.66,7.73 9.66,7.01 c 0.54,-0.07 1.09,-0.02 1.61,0.16 1.24,0.67 2.17,1.82 2.56,3.2 l 0,4.27 z M 9.66,7.01 C 9.66,7.73 9.38,8.41 8.87,8.9 8.36,9.39 7.68,9.65 6.98,9.6 5.7,9.45 4.74,8.33 4.75,7.01 5,6.99 5.25,6.94 5.49,6.86 L 5.64,6.25 C 5.17,6.14 4.78,5.8 4.6,5.34 4.21,4.58 4.6,3.74 5.54,3.26 6.49,2.78 7.78,2.78 8.72,3.26 9.67,3.74 10.05,4.58 9.66,5.34 9.42,5.8 8.98,6.14 8.47,6.25 l 0.15,0.61 z"
       stroke-miterlimit="10"
       pointer-events="none"
       id="path3116"
       inkscape:connector-curvature="0"
       style="fill:#ffffff;stroke:#000000;stroke-miterlimit:10" />
    <path
       d="m 2.22,12.2 0,2.28 M 11,12.2 l 0,2.28"
       stroke-miterlimit="10"
       pointer-events="none"
       id="path3118"
       inkscape:connector-curvature="0"
       style="fill:none;stroke:#000000;stroke-miterlimit:10" />
    <path
       d="M 4.6,5.34 C 3.93,4.65 3.75,3.62 4.15,2.74 4.66,1.59 5.75,0.82 6.98,0.76 8.38,0.64 9.69,1.43 10.26,2.74 10.62,3.65 10.38,4.69 9.66,5.34 9.71,4.86 9.6,4.38 9.37,3.96 8.74,3.56 7.96,3.5 7.28,3.81 6.56,3.45 5.71,3.51 5.05,3.96 4.76,4.36 4.6,4.84 4.6,5.34 z"
       stroke-miterlimit="10"
       pointer-events="none"
       id="path3120"
       inkscape:connector-curvature="0"
       style="fill:#000000;stroke:#000000;stroke-miterlimit:10" />
  </g>
</svg>
